<svg xmlns="http://www.w3.org/2000/svg" height="40" viewBox="0 -960 960 960" width="40">
<path fill="currentcolor" d="M297.999-127.667q-21.97 0-36.734-14.961Q246.5-157.59 246.5-179.835q0-22.244 14.757-37.204Q276.015-232 297.972-232q21.957 0 37.076 14.962t15.119 37.206q0 22.245-14.962 37.205-14.962 14.96-37.206 14.96Zm366.5 0q-21.97 0-36.734-14.961Q613-157.59 613-179.835q0-22.244 14.757-37.204Q642.515-232 664.472-232q21.957 0 37.076 14.962t15.119 37.206q0 22.245-14.962 37.205-14.962 14.96-37.206 14.96ZM230.333-749.833 343-512.5h261.5q9 0 16.333-4.5 7.334-4.5 11.667-12.5l106.333-192.333q6-11 1-19.5t-17-8.5h-492.5ZM218.046-773h498.121q26.5 0 39.75 21.672T758-707.333l-103.76 190.35q-8.073 12.316-20.885 19.983-12.813 7.667-26.551 7.667H324.333l-52.833 97q-7.333 12-.167 26 7.167 14 22.167 14h423.167v23.166H296.08q-31.43 0-45.505-23.92-14.075-23.92-.242-49.756l64-113.836L165.441-829.5H95.667v-23.167h84.5L218.046-773ZM343-512.5h280.5H343Z"/></svg>